<mxfile host="app.diagrams.net" agent="Mozilla/5.0 (Windows NT 10.0; Win64; x64) AppleWebKit/537.36 (KHTML, like Gecko) Chrome/128.0.0.0 Safari/537.36" version="24.7.8">
  <diagram name="ページ1" id="xJlqjEtUXOLutWJMeis7">
    <mxGraphModel dx="1116" dy="1018" grid="1" gridSize="10" guides="1" tooltips="1" connect="1" arrows="1" fold="1" page="0" pageScale="1" pageWidth="827" pageHeight="1169" math="0" shadow="0">
      <root>
        <mxCell id="0" />
        <mxCell id="1" parent="0" />
        <mxCell id="Z2UqT53Wj53wZqYHNnAY-5" style="edgeStyle=none;curved=1;rounded=0;orthogonalLoop=1;jettySize=auto;html=1;entryX=0.5;entryY=0;entryDx=0;entryDy=0;fontSize=12;startSize=8;endSize=8;" edge="1" parent="1" source="Z2UqT53Wj53wZqYHNnAY-1" target="Z2UqT53Wj53wZqYHNnAY-3">
          <mxGeometry relative="1" as="geometry" />
        </mxCell>
        <mxCell id="Z2UqT53Wj53wZqYHNnAY-1" value="s_errorTemperatureTooHigh" style="text;html=1;align=center;verticalAlign=middle;whiteSpace=wrap;rounded=0;fontSize=16;" vertex="1" parent="1">
          <mxGeometry x="-40" y="90" width="200" height="20" as="geometry" />
        </mxCell>
        <mxCell id="Z2UqT53Wj53wZqYHNnAY-8" style="edgeStyle=none;curved=1;rounded=0;orthogonalLoop=1;jettySize=auto;html=1;entryX=0;entryY=0.5;entryDx=0;entryDy=0;fontSize=12;startSize=8;endSize=8;" edge="1" parent="1" source="Z2UqT53Wj53wZqYHNnAY-2" target="Z2UqT53Wj53wZqYHNnAY-7">
          <mxGeometry relative="1" as="geometry" />
        </mxCell>
        <mxCell id="Z2UqT53Wj53wZqYHNnAY-2" value="s_temperatureSensor" style="text;html=1;align=center;verticalAlign=middle;whiteSpace=wrap;rounded=0;fontSize=16;" vertex="1" parent="1">
          <mxGeometry y="170" width="160" height="20" as="geometry" />
        </mxCell>
        <mxCell id="Z2UqT53Wj53wZqYHNnAY-3" value="map to true" style="shape=offPageConnector;whiteSpace=wrap;html=1;direction=north;" vertex="1" parent="1">
          <mxGeometry x="320" y="80" width="80" height="40" as="geometry" />
        </mxCell>
        <mxCell id="Z2UqT53Wj53wZqYHNnAY-6" value="map to false" style="shape=offPageConnector;whiteSpace=wrap;html=1;direction=north;" vertex="1" parent="1">
          <mxGeometry x="320" y="160" width="80" height="40" as="geometry" />
        </mxCell>
        <mxCell id="Z2UqT53Wj53wZqYHNnAY-9" style="edgeStyle=none;curved=1;rounded=0;orthogonalLoop=1;jettySize=auto;html=1;entryX=0.5;entryY=0;entryDx=0;entryDy=0;fontSize=12;startSize=8;endSize=8;" edge="1" parent="1" source="Z2UqT53Wj53wZqYHNnAY-7" target="Z2UqT53Wj53wZqYHNnAY-6">
          <mxGeometry relative="1" as="geometry" />
        </mxCell>
        <mxCell id="Z2UqT53Wj53wZqYHNnAY-7" value="filter&lt;div&gt;&amp;lt; 100&lt;/div&gt;" style="rhombus;whiteSpace=wrap;html=1;" vertex="1" parent="1">
          <mxGeometry x="200" y="160" width="80" height="40" as="geometry" />
        </mxCell>
        <mxCell id="Z2UqT53Wj53wZqYHNnAY-14" style="edgeStyle=none;curved=1;rounded=0;orthogonalLoop=1;jettySize=auto;html=1;exitX=0.5;exitY=0;exitDx=0;exitDy=0;fontSize=12;startSize=8;endSize=8;" edge="1" parent="1" source="Z2UqT53Wj53wZqYHNnAY-10">
          <mxGeometry relative="1" as="geometry">
            <mxPoint x="760" y="140" as="targetPoint" />
          </mxGeometry>
        </mxCell>
        <mxCell id="Z2UqT53Wj53wZqYHNnAY-10" value="orElse" style="shape=trapezoid;perimeter=trapezoidPerimeter;whiteSpace=wrap;html=1;fixedSize=1;direction=south;" vertex="1" parent="1">
          <mxGeometry x="440" y="80" width="60" height="120" as="geometry" />
        </mxCell>
        <mxCell id="Z2UqT53Wj53wZqYHNnAY-12" style="edgeStyle=none;curved=1;rounded=0;orthogonalLoop=1;jettySize=auto;html=1;exitX=0.5;exitY=1;exitDx=0;exitDy=0;entryX=0.168;entryY=1;entryDx=0;entryDy=0;entryPerimeter=0;fontSize=12;startSize=8;endSize=8;" edge="1" parent="1" source="Z2UqT53Wj53wZqYHNnAY-3" target="Z2UqT53Wj53wZqYHNnAY-10">
          <mxGeometry relative="1" as="geometry" />
        </mxCell>
        <mxCell id="Z2UqT53Wj53wZqYHNnAY-13" style="edgeStyle=none;curved=1;rounded=0;orthogonalLoop=1;jettySize=auto;html=1;entryX=0.833;entryY=1;entryDx=0;entryDy=0;entryPerimeter=0;fontSize=12;startSize=8;endSize=8;" edge="1" parent="1" source="Z2UqT53Wj53wZqYHNnAY-6" target="Z2UqT53Wj53wZqYHNnAY-10">
          <mxGeometry relative="1" as="geometry" />
        </mxCell>
        <mxCell id="Z2UqT53Wj53wZqYHNnAY-15" value="errorTemperatureTooHIghUpdate" style="text;html=1;align=center;verticalAlign=middle;whiteSpace=wrap;rounded=0;fontSize=16;" vertex="1" parent="1">
          <mxGeometry x="510" y="120" width="240" height="20" as="geometry" />
        </mxCell>
      </root>
    </mxGraphModel>
  </diagram>
</mxfile>
